<?xml version="1.0" encoding="UTF-8" standalone="no"?>
<svg
   xmlns:dc="http://purl.org/dc/elements/1.1/"
   xmlns:cc="http://creativecommons.org/ns#"
   xmlns:rdf="http://www.w3.org/1999/02/22-rdf-syntax-ns#"
   xmlns:svg="http://www.w3.org/2000/svg"
   xmlns="http://www.w3.org/2000/svg"
   xmlns:sodipodi="http://sodipodi.sourceforge.net/DTD/sodipodi-0.dtd"
   xmlns:inkscape="http://www.inkscape.org/namespaces/inkscape"
   width="210mm"
   height="297mm"
   viewBox="0 0 210 297"
   version="1.1"
   id="svg8"
   inkscape:version="1.0.1 (3bc2e813f5, 2020-09-07)"
   sodipodi:docname="main_design.svg">
  <defs
     id="defs2" />
  <sodipodi:namedview
     id="base"
     pagecolor="#ffffff"
     bordercolor="#666666"
     borderopacity="1.0"
     inkscape:pageopacity="0.0"
     inkscape:pageshadow="2"
     inkscape:zoom="0.45254834"
     inkscape:cx="205.60547"
     inkscape:cy="609.01093"
     inkscape:document-units="mm"
     inkscape:current-layer="layer1"
     inkscape:document-rotation="0"
     showgrid="false"
     inkscape:snap-grids="true"
     inkscape:window-width="1920"
     inkscape:window-height="1008"
     inkscape:window-x="0"
     inkscape:window-y="42"
     inkscape:window-maximized="0"
     inkscape:snap-object-midpoints="false" />
  <metadata
     id="metadata5">
    <rdf:RDF>
      <cc:Work
         rdf:about="">
        <dc:format>image/svg+xml</dc:format>
        <dc:type
           rdf:resource="http://purl.org/dc/dcmitype/StillImage" />
        <dc:title />
      </cc:Work>
    </rdf:RDF>
  </metadata>
  <g
     inkscape:label="Layer 1"
     inkscape:groupmode="layer"
     id="layer1">
    <path
       id="rect22"
       style="fill:#0000ff;fill-rule:evenodd;stroke-width:0.365756"
       d="m 132.89892,136.01849 c -0.0447,0.021 -0.0857,0.0439 -0.13146,0.0643 0.0438,0.0213 0.0875,0.0398 0.13146,0.0622 z m -36.557773,24.21779 c -3.66e-4,0.01 -0.0011,0.0171 -0.0011,0.0264 0.0054,-0.009 0.01109,-0.0171 0.01647,-0.0257 -0.0054,-2.9e-4 -0.0097,-2.6e-4 -0.01507,-7.2e-4 z m 36.557773,4.60981 c -0.004,0.004 -0.009,0.006 -0.0111,0.0111 -0.0124,0.14833 -0.0268,0.29669 -0.04,0.44504 0.0173,0.003 0.0341,0.009 0.0515,0.0111 z m -5.73852,35.41051 c -0.014,0.10838 -0.0283,0.21667 -0.0422,0.32502 0.0453,-0.006 0.0883,-0.0151 0.13286,-0.0221 -0.0306,-0.10078 -0.0604,-0.20195 -0.0907,-0.30289 z" />
    <path
       id="rect42"
       style="fill:none;fill-rule:evenodd;stroke-width:0.339695"
       d="m 16.735763,230.4893 v 27.06884 H 43.804597 V 230.4893 Z" />
    <path
       id="rect44"
       style="fill:none;stroke-width:0.339695"
       d="m 16.735763,201.97278 v 55.58536 h 37.814361 v -11.89798 c -0.823568,-1.5077 -1.670905,-2.99718 -2.559661,-4.45386 -4.782476,-13.11351 -9.949131,-26.09518 -14.658661,-39.23352 z m 28.763331,0 c 2.448434,6.65132 5.362829,14.44111 9.05103,24.43288 v -24.43288 z" />
    <rect
       style="fill:#000000;fill-rule:evenodd;stroke-width:0.409639"
       id="rect128"
       width="8.6700001"
       height="69.119316"
       x="71.792404"
       y="111.3624" />
    <rect
       style="fill:#000000;fill-rule:evenodd;stroke-width:0.409643"
       id="rect130"
       width="69.119316"
       height="8.6701517"
       x="71.792404"
       y="111.3624" />
    <rect
       style="fill:#000000;fill-rule:evenodd;stroke-width:0.409639"
       id="rect132"
       width="8.6700001"
       height="69.119316"
       x="132.24171"
       y="111.3624" />
    <rect
       style="fill:#000000;fill-rule:evenodd;stroke-width:0.409639"
       id="rect140"
       width="69.119316"
       height="8.6700001"
       x="71.792404"
       y="171.81172" />
    <rect
       style="fill:#000000;fill-rule:evenodd;stroke-width:0.365756"
       id="rect142"
       width="2.9914231"
       height="0.29982489"
       x="86.38472"
       y="177.07207" />
    <rect
       style="fill:#000000;fill-rule:evenodd;stroke-width:0.365756"
       id="rect144"
       width="51.84502"
       height="6.9119315"
       x="19.958315"
       y="139.20064" />
    <rect
       style="fill:#000000;fill-rule:evenodd;stroke-width:0.365756"
       id="rect146"
       width="23.772223"
       height="6.9119315"
       x="50.313538"
       y="117.4474" />
    <rect
       style="fill:#000000;fill-rule:evenodd;stroke-width:0.365756"
       id="rect148"
       width="6.9119315"
       height="20.294312"
       x="44.398319"
       y="104.06503" />
    <rect
       style="fill:#000000;fill-rule:evenodd;stroke-width:0.365756"
       id="rect150"
       width="6.9119315"
       height="21.461401"
       x="71.792404"
       y="89.900993" />
    <rect
       style="fill:#000000;fill-rule:evenodd;stroke-width:0.419319"
       id="rect152"
       width="49.056965"
       height="6.9119315"
       x="29.647373"
       y="82.989067" />
    <rect
       style="fill:#000000;fill-rule:evenodd;stroke-width:0.365756"
       id="rect156"
       width="6.9119315"
       height="41.471588"
       x="89.958694"
       y="70.383797" />
    <rect
       style="fill:#000000;fill-rule:evenodd;stroke-width:0.365756"
       id="rect160"
       width="6.9119315"
       height="14.944611"
       x="48.253372"
       y="68.498314" />
    <rect
       style="fill:#000000;fill-rule:evenodd;stroke-width:0.365756"
       id="rect162"
       width="6.9119315"
       height="16.58215"
       x="-42.396099"
       y="68.056656"
       transform="rotate(-44.857994)" />
    <rect
       style="fill:#000000;fill-rule:evenodd;stroke-width:0.365756"
       id="rect164"
       width="6.9119315"
       height="20.262186"
       x="117.67522"
       y="91.560669" />
    <rect
       style="fill:#000000;fill-rule:evenodd;stroke-width:0.365756"
       id="rect166"
       width="6.9119315"
       height="36.070194"
       x="177.02017"
       y="-32.341026"
       transform="rotate(38.846942)" />
    <rect
       style="fill:#000000;fill-rule:evenodd;stroke-width:0.365756"
       id="rect168"
       width="59.348591"
       height="6.9119315"
       x="138.7356"
       y="128.29456" />
    <rect
       style="fill:#000000;fill-rule:evenodd;stroke-width:0.365756"
       id="rect170"
       width="6.9119315"
       height="21.71962"
       x="209.78688"
       y="-6.5537281"
       transform="rotate(33.626758)" />
    <rect
       style="fill:#000000;fill-rule:evenodd;stroke-width:0.365756"
       id="rect172"
       width="34.581902"
       height="6.9119315"
       x="137.55743"
       y="154.83824" />
    <rect
       style="fill:#000000;fill-rule:evenodd;stroke-width:0.365756"
       id="rect174"
       width="6.9119315"
       height="17.402695"
       x="165.22742"
       y="154.83824" />
    <rect
       style="fill:#000000;fill-rule:evenodd;stroke-width:0.535289"
       id="rect176"
       width="6.9119315"
       height="46.881725"
       x="133.99979"
       y="180.48169" />
    <rect
       style="fill:#000000;fill-rule:evenodd;stroke-width:0.365756"
       id="rect178"
       width="26.569464"
       height="6.9119315"
       x="137.62656"
       y="198.70651" />
    <rect
       style="fill:#000000;fill-rule:evenodd;stroke-width:0.365756"
       id="rect180"
       width="6.9119315"
       height="21.632072"
       x="117.26109"
       y="178.94955" />
    <rect
       style="fill:#000000;fill-rule:evenodd;stroke-width:0.365756"
       id="rect182"
       width="6.9119315"
       height="20.526625"
       x="216.18864"
       y="76.668594"
       transform="rotate(39.274507)" />
    <rect
       style="fill:#000000;fill-rule:evenodd;stroke-width:0.365756"
       id="rect184"
       width="6.9119315"
       height="41.510269"
       x="81.639214"
       y="178.15315" />
    <rect
       style="fill:#000000;fill-rule:evenodd;stroke-width:0.386789"
       id="rect186"
       width="44.803028"
       height="6.9119315"
       x="26.989374"
       y="173.56978" />
    <rect
       style="fill:#000000;fill-rule:evenodd;stroke-width:0.365756"
       id="rect188"
       width="19.693119"
       height="6.9119315"
       x="-128.45424"
       y="137.93448"
       transform="rotate(-47.094192)" />
    <rect
       style="fill:#000000;fill-rule:evenodd;stroke-width:0.365756"
       id="rect190"
       width="6.9119315"
       height="22.411516"
       x="38.587162"
       y="179.56126" />
    <rect
       style="fill:#000000;fill-rule:evenodd;stroke-width:0.365756"
       id="rect192"
       width="6.9119315"
       height="17.202812"
       x="47.770142"
       y="143.48056" />
    <text
       xml:space="preserve"
       style="font-style:normal;font-weight:normal;font-size:10.5833px;line-height:1.25;font-family:sans-serif;fill:#000000;fill-opacity:1;stroke:none;stroke-width:0.264583"
       x="36.607067"
       y="194.41293"
       id="text196"><tspan
         sodipodi:role="line"
         id="tspan194"
         x="36.607067"
         y="194.41293"
         style="stroke-width:0.264583" /></text>
    <ellipse
       style="fill:none;fill-rule:evenodd;stroke-width:0.264583"
       id="path63"
       cx="103.86231"
       cy="142.12256"
       rx="2.3349521"
       ry="11.012138" />
    <rect
       style="fill:#000000;fill-rule:evenodd;stroke-width:0.264583"
       id="rect71"
       width="5"
       height="45"
       x="86.875076"
       y="123.19796" />
    <rect
       style="fill:#000000;fill-rule:evenodd;stroke-width:0.23334"
       id="rect71-3"
       width="5"
       height="35"
       x="97.118317"
       y="130.43346" />
    <rect
       style="fill:#000000;fill-rule:evenodd;stroke-width:0.263445"
       id="rect71-3-6"
       width="5"
       height="44.613815"
       x="122.10548"
       y="121.02569" />
    <rect
       style="fill:#000000;fill-rule:evenodd;stroke-width:0.2249"
       id="rect71-3-6-7"
       width="5"
       height="32.513958"
       x="113.58626"
       y="124.19855" />
    <rect
       style="fill:#000000;fill-rule:evenodd;stroke-width:0.264583"
       id="rect118"
       width="1.4014307"
       height="0.22466855"
       x="116.74657"
       y="142.73193" />
    <rect
       style="fill:#000000;fill-rule:evenodd;stroke-width:0.264583"
       id="rect120"
       width="1.4014282"
       height="0.22467041"
       x="116.74656"
       y="142.73193" />
  </g>
</svg>
